<?xml version="1.0" standalone="no"?>
<svg width="64" height="64" viewBox="0 0 512 384" version="1.1" xmlns="http://www.w3.org/2000/svg">
  <path d="M0 32v32h272v-32h-272zM368 32v32h80v-32h-80zM352 0c0 -18 -14 -32 -32 -32v0c-18 0 -32 14 -32 32v96c0 18 14 32 32 32v0c18 0 32 -14 32 -32v-96zM0 176v32h80v-32h-80zM176 176v32h272v-32h-272zM160 144c0 -18 -14 -32 -32 -32v0c-18 0 -32 14 -32 32v96 c0 18 14 32 32 32v0c18 0 32 -14 32 -32v-96zM0 320v32h272v-32h-272zM368 320v32h80v-32h-80zM352 288c0 -18 -14 -32 -32 -32v0c-18 0 -32 14 -32 32v96c0 18 14 32 32 32v0c18 0 32 -14 32 -32v-96z" transform="matrix(1,0,0,-1,0,384)"/>
</svg>